<svg width="1440" height="724" viewBox="0 0 1440 724" fill="none" xmlns="http://www.w3.org/2000/svg">
<path d="M-15.9082 719.9C70.6018 752.1 182.791 710.6 217.03 634C236.317 590.8 232.437 542.7 226.959 496.6C219.198 431.4 206.53 338.7 273.067 291.8C299.203 273.4 334.583 265.5 367.566 270.8C417.441 278.8 455.902 313.8 503.266 329.3C555.994 346.6 608.721 340.6 650.15 307.9C689.639 276.8 720.796 238.5 761.198 208.3C830.36 156.6 925.43 133.2 1015.36 143.5C1119.45 155.5 1216.69 198.3 1323.97 190.9C1365.51 188.1 1405 175.5 1437.53 152.4C1496.3 110.7 1541.39 56.7004 1583.5 1.90039" stroke="#8976FD" stroke-opacity="0.23" stroke-miterlimit="10"/>
<path d="M-16.5928 708.2C45.4936 728.8 121.618 711.6 172.177 672.4C190.209 658.3 205.046 641.4 214.519 622.2C223.992 603.2 228.671 583.2 230.725 562.8C233.122 539.1 231.867 515 230.155 491.2C229.128 475.5 227.644 458 227.187 439.9C225.704 385.7 231.867 325.6 280.6 290.3C306.165 271.7 340.632 263.3 373.045 267.6C422.006 274.1 460.696 306.9 507.945 321.7C535.907 330.5 563.869 333.1 590.004 329C612.83 325.4 634.515 316.7 653.803 302.6C693.291 273.7 724.905 238.2 765.307 210.4C834.355 162.6 928.169 141.6 1017.53 151.2C1022.55 151.7 1027.46 152.3 1032.48 153C1125.38 165.4 1213.38 197.5 1307.88 192.8C1312.67 192.6 1317.46 192.2 1322.26 191.8C1363 188.1 1401.69 175.1 1433.65 152C1491.51 110.3 1536.02 56.6002 1577.57 2.2002" stroke="#8976FD" stroke-opacity="0.23" stroke-miterlimit="10"/>
<path d="M-17.3916 696.5C43.0969 714 117.737 695.9 168.525 658.3C186.672 644.8 201.737 628.7 211.78 610.4C221.709 592.4 227.302 573.4 230.155 554.1C233.579 531.6 233.579 508.6 233.122 485.8C232.894 470.7 232.323 453.8 232.552 436.2C233.35 383.5 240.312 324.2 287.904 288.6C312.899 269.9 346.453 260.8 378.295 264.1C426.457 269.1 465.261 299.7 512.282 313.8C540.016 322.2 567.635 324.8 593.771 321.2C616.482 318 637.939 310 657.227 297C696.715 270.3 728.786 237.7 769.073 212.1C838.007 168.3 930.68 149.6 1019.24 158.5C1024.15 159 1029.17 159.6 1034.08 160.2C1126.3 171.5 1213.49 200.3 1306.05 193.6C1310.73 193.3 1315.41 192.8 1320.2 192.3C1360.15 187.8 1398.04 174.3 1429.43 151.2C1486.26 109.4 1530.2 56.0996 1571.29 2.09961" stroke="#8976FD" stroke-opacity="0.23" stroke-miterlimit="10"/>
<path d="M-18.1904 684.7C40.7003 699 113.857 680 164.987 644C183.248 631.1 198.541 615.8 209.155 598.5C219.655 581.4 225.932 563.6 229.813 545.3C234.264 524 235.519 502.2 236.318 480.3C236.889 465.8 237.231 449.6 238.258 432.5C241.34 381.3 248.986 322.9 295.437 287C319.861 268.1 352.502 258.4 383.773 260.7C431.137 264.2 470.055 292.7 516.848 306C544.353 313.9 571.744 316.6 597.651 313.4C620.135 310.6 641.477 303.3 660.765 291.4C700.368 266.8 732.78 237.1 773.068 213.9C841.774 174.1 933.306 157.7 1021.3 165.9C1026.21 166.4 1031.11 166.9 1036.02 167.4C1127.44 177.7 1213.84 203.1 1304.57 194.4C1309.13 193.9 1313.81 193.4 1318.38 192.8C1357.52 187.4 1394.62 173.5 1425.43 150.4C1481.24 108.6 1524.61 55.6 1565.24 2" stroke="#8976FD" stroke-opacity="0.23" stroke-miterlimit="10"/>
<path d="M-18.9893 673C38.3036 684.2 109.977 664.3 161.449 629.8C179.824 617.5 195.46 603 206.53 586.7C217.601 570.6 224.563 553.8 229.356 536.5C234.948 516.4 237.345 495.7 239.399 474.8C240.769 460.9 242.139 445.3 243.85 428.7C249.215 379 257.546 321.4 302.97 285.3C326.823 266.3 358.55 256 389.251 257.2C435.702 259.2 474.848 285.4 521.413 298.1C548.69 305.5 575.853 308.2 601.532 305.5C623.901 303.1 645.015 296.6 664.189 285.7C703.792 263.3 736.661 236.4 776.834 215.6C845.426 179.8 935.702 165.7 1023.01 173.2C1027.92 173.6 1032.71 174.1 1037.62 174.6C1128.24 183.9 1213.84 206 1302.74 195.2C1307.31 194.6 1311.76 194 1316.32 193.3C1354.67 187.1 1390.85 172.7 1421.21 149.5C1475.99 107.6 1518.79 54.9998 1558.96 1.7998" stroke="#8976FD" stroke-opacity="0.23" stroke-miterlimit="10"/>
<path d="M-19.6738 661.3C36.1354 669.4 106.211 648.6 158.025 615.7C176.514 603.9 192.378 590.3 204.02 575C215.547 559.9 223.421 544.1 229.014 527.9C235.633 509.1 239.285 489.5 242.709 469.5C244.992 456.2 247.046 441.2 249.557 425.1C256.976 376.8 266.334 320.1 310.616 283.7C333.899 264.5 364.599 253.6 394.844 253.9C440.495 254.3 479.756 278.5 526.092 290.4C553.141 297.4 580.076 300.1 605.526 297.9C627.667 296 648.667 290.1 667.841 280.3C707.558 260.1 740.77 236.2 780.943 217.6C849.421 185.9 938.556 174 1025.18 180.8C1029.97 181.2 1034.77 181.6 1039.67 182C1129.49 190.3 1214.29 209 1301.37 196.1C1305.82 195.4 1310.27 194.7 1314.61 193.9C1352.16 186.9 1387.54 172 1417.33 148.8C1471.2 106.9 1513.31 54.5998 1553.03 1.7998" stroke="#8976FD" stroke-opacity="0.23" stroke-miterlimit="10"/>
<path d="M-20.4736 649.5C33.7378 654.5 102.329 632.7 154.487 601.4C173.09 590.2 189.182 577.4 201.508 563.1C213.606 549 222.165 534.3 228.785 519.1C236.431 501.5 241.339 483 246.018 464C249.1 451.3 252.181 437 255.377 421.4C265.078 374.6 275.121 318.7 318.262 282.1C340.974 262.7 370.762 251.2 400.435 250.5C445.288 249.4 484.777 271.4 530.771 282.6C557.591 289.1 584.297 291.9 609.52 290.1C631.547 288.6 652.319 283.4 671.492 274.7C711.209 256.7 744.877 235.6 784.937 219.3C853.3 191.6 941.18 182 1027.23 188.1C1032.03 188.4 1036.82 188.8 1041.5 189.2C1130.63 196.4 1214.63 211.8 1299.77 196.9C1304.11 196.1 1308.45 195.3 1312.78 194.3C1349.53 186.4 1384.12 171.1 1413.33 147.9C1466.17 105.9 1507.72 53.9996 1546.98 1.59961" stroke="#8976FD" stroke-opacity="0.23" stroke-miterlimit="10"/>
<path d="M-21.2715 637.8C31.3421 639.7 98.4502 617 150.95 587.2C169.667 576.6 185.987 564.6 198.884 551.3C211.552 538.1 220.911 524.5 228.329 510.3C237.003 493.9 243.166 476.5 249.101 458.5C253.095 446.4 256.976 432.7 260.856 417.6C272.84 372.3 283.682 317.2 325.682 280.4C347.823 260.9 376.697 248.8 405.8 247C449.74 244.4 489.457 264.2 535.223 274.7C561.815 280.8 588.293 283.6 613.287 282.2C635.086 281.1 655.858 276.6 674.917 269C714.748 253.1 748.759 235 788.818 221C857.068 197.3 943.692 190.1 1029.06 195.4C1033.74 195.7 1038.53 196 1043.21 196.4C1131.55 202.6 1214.75 214.8 1298.06 197.7C1302.29 196.8 1306.51 195.9 1310.85 194.8C1346.8 186.1 1380.58 170.3 1409.22 147.1C1461.04 105.1 1502.01 53.5 1540.82 1.5" stroke="#8976FD" stroke-opacity="0.23" stroke-miterlimit="10"/>
<path d="M-21.957 626.1C29.0588 624.9 94.6831 601.2 147.525 573.1C166.356 563 183.019 551.9 196.372 539.6C209.497 527.4 219.655 514.8 227.986 501.7C237.801 486.5 245.106 470.3 252.296 453.2C257.089 441.7 261.883 428.6 266.562 414.1C280.828 370.3 292.355 316 333.213 279C354.784 259.3 382.745 246.6 411.278 243.9C454.419 239.8 494.25 257.5 539.787 267.2C566.037 272.8 592.401 275.6 617.281 274.8C638.966 274.1 659.509 270.4 678.569 263.8C718.514 250.1 752.867 234.8 792.812 223.2C860.833 203.5 946.43 198.6 1031.11 203.2C1035.79 203.5 1040.47 203.7 1045.15 204C1132.69 209.2 1215.2 218.1 1296.69 198.9C1300.8 197.9 1305.02 196.9 1309.13 195.7C1344.28 186.2 1377.15 169.9 1405.34 146.6C1456.13 104.5 1496.53 53.2998 1534.88 1.7998" stroke="#8976FD" stroke-opacity="0.23" stroke-miterlimit="10"/>
<path d="M-22.7559 614.4C26.6621 610.1 90.8027 585.5 143.987 558.9C162.932 549.4 179.824 539.1 193.747 527.8C207.443 516.6 218.285 505.1 227.53 493C238.372 478.9 246.932 463.9 255.377 447.9C261.084 437 266.676 424.5 272.154 410.5C288.589 368.2 301.029 314.7 340.746 277.4C361.746 257.6 388.68 244.2 416.756 240.5C459.098 234.9 499.043 250.4 544.353 259.4C570.374 264.6 596.51 267.4 621.162 267C642.618 266.7 663.047 263.7 682.107 258.2C722.052 246.7 756.861 234.3 796.806 225C864.713 209.2 949.055 206.7 1033.05 210.6C1037.73 210.8 1042.3 211 1046.98 211.3C1133.72 215.5 1215.43 221 1295.09 199.8C1299.2 198.7 1303.2 197.6 1307.31 196.3C1341.66 185.9 1373.73 169.2 1401.24 145.9C1451.11 103.8 1490.83 52.8998 1528.72 1.7998" stroke="#8976FD" stroke-opacity="0.23" stroke-miterlimit="10"/>
<path d="M-23.5537 602.6C24.2665 595.2 86.9234 569.7 140.45 544.7C159.396 535.8 176.629 526.3 191.124 515.9C205.39 505.7 217.031 495.2 227.188 484.1C239.058 471.2 248.987 457.3 258.574 442.3C265.193 432 271.585 420.2 277.748 406.6C296.465 365.8 309.59 313.1 348.279 275.6C368.709 255.6 394.73 241.7 422.235 236.9C463.664 229.8 503.838 243.1 548.919 251.4C574.712 256.1 600.619 259 625.043 259.1C646.385 259.2 666.7 256.9 685.646 252.5C725.705 243.2 760.743 233.6 800.688 226.7C868.367 214.9 951.567 214.7 1035 217.9C1039.56 218.1 1044.24 218.3 1048.81 218.4C1134.86 221.5 1215.78 223.7 1293.5 200.5C1297.49 199.3 1301.49 198 1305.37 196.7C1338.92 185.5 1370.19 168.3 1397.13 145C1445.97 102.8 1485.12 52.2996 1522.56 1.59961" stroke="#8976FD" stroke-opacity="0.23" stroke-miterlimit="10"/>
<path d="M-24.3535 590.9C21.8688 580.4 83.0422 553.9 136.911 530.5C155.971 522.1 173.547 513.5 188.498 504.1C203.22 494.8 215.66 485.4 226.731 475.4C239.627 463.7 250.812 451 261.654 436.9C269.073 427.2 276.377 416 283.339 403C304.339 363.6 318.263 311.8 355.697 274.1C375.555 254 400.664 239.4 427.598 233.6C468.228 224.9 508.516 236.2 553.369 243.7C578.934 248 604.613 250.8 628.808 251.4C649.922 251.9 670.123 250.4 688.954 247.1C729.128 240.1 764.508 233.2 804.453 228.6C872.018 220.8 954.077 222.9 1036.71 225.4C1041.27 225.5 1045.84 225.7 1050.4 225.8C1135.66 227.9 1215.78 226.8 1291.67 201.5C1295.55 200.2 1299.43 198.8 1303.31 197.4C1336.07 185.3 1366.54 167.7 1392.9 144.4C1440.72 102.2 1479.3 52.0002 1516.28 1.7002" stroke="#8976FD" stroke-opacity="0.23" stroke-miterlimit="10"/>
<path d="M-25.0381 579.2C19.7006 565.6 79.2761 538.2 133.373 516.3C152.547 508.5 170.351 500.7 185.873 492.3C201.166 484 214.291 475.7 226.275 466.7C240.198 456.2 252.753 444.6 264.736 431.5C273.068 422.4 281.171 411.8 288.932 399.3C312.214 361.4 326.823 310.4 363.23 272.4C382.518 252.1 406.713 237 433.077 230.2C472.908 220 513.31 229.1 557.934 235.9C583.271 239.8 608.722 242.6 632.689 243.6C653.689 244.5 673.661 243.7 692.493 241.5C732.78 236.7 768.503 232.7 808.334 230.4C875.67 226.6 956.588 231 1038.65 232.8C1043.21 232.9 1047.66 233 1052.23 233C1136.68 234.1 1216 229.6 1290.07 202.3C1293.84 200.9 1297.61 199.4 1301.37 197.9C1333.33 185 1363 166.9 1388.8 143.5C1435.59 101.2 1473.71 51.4 1510.11 1.5" stroke="#8976FD" stroke-opacity="0.23" stroke-miterlimit="10"/>
<path d="M-25.8369 567.4C17.304 550.7 75.3958 522.3 129.835 502.1C149.123 494.9 167.156 487.9 183.248 480.5C199.112 473.2 213.036 465.9 225.932 457.9C240.997 448.6 254.693 438.1 267.932 426C277.176 417.5 286.078 407.5 294.524 395.6C320.089 359.2 335.496 309 370.762 270.8C389.48 250.3 412.762 234.6 438.555 226.8C477.473 215.1 518.103 222.1 562.614 228.1C587.722 231.5 612.945 234.4 636.684 235.9C657.455 237.2 677.428 237.2 696.145 236C736.547 233.4 772.612 232.5 812.443 232.3C879.665 232 959.327 239.2 1040.7 240.3C1045.15 240.4 1049.72 240.4 1054.17 240.4C1137.94 240.5 1216.46 232.6 1288.59 203.3C1292.24 201.8 1296.01 200.2 1299.66 198.6C1330.7 184.9 1359.58 166.3 1384.92 142.9C1430.8 100.5 1468.23 51.0996 1504.18 1.59961" stroke="#8976F8" stroke-opacity="0.592157" stroke-miterlimit="10"/>
<path d="M-26.6357 555.7C14.9073 535.8 71.5154 506.6 126.297 487.9C145.699 481.2 164.074 475.1 180.623 468.7C196.944 462.4 211.666 456.1 225.476 449.2C241.568 441.1 256.633 431.8 271.128 420.6C281.285 412.8 291.1 403.4 300.231 391.9C328.078 357 344.17 307.6 378.295 269.2C396.442 248.6 418.697 232.2 444.033 223.4C482.153 210.2 522.897 215 567.179 220.3C592.059 223.3 617.053 226.2 640.678 228.1C661.336 229.8 681.08 230.1 699.797 230.4C740.313 231 776.72 231.6 816.551 234.1C883.545 238.2 962.18 247.4 1042.87 247.7C1047.32 247.7 1051.77 247.7 1056.22 247.7C1139.19 246.8 1216.92 235.5 1287.22 204.2C1290.87 202.6 1294.41 200.9 1298.06 199.2C1328.31 184.6 1356.38 165.6 1381.15 142.2C1426 99.7996 1462.87 50.6996 1498.36 1.59961" stroke="#8976FD" stroke-opacity="0.23" stroke-miterlimit="10"/>
<path d="M-27.4346 544C12.5107 521 67.6351 490.9 122.76 473.7C142.276 467.6 160.879 462.3 177.998 456.9C194.889 451.5 210.411 446.4 225.019 440.5C242.139 433.7 258.573 425.5 274.209 415.2C285.28 408 295.894 399.2 305.709 388.2C335.839 354.8 352.73 306.2 385.713 267.6C403.289 246.8 424.632 229.9 449.398 220.1C486.718 205.4 527.576 208.1 571.63 212.6C596.282 215.1 621.048 218 644.444 220.4C664.874 222.5 684.618 224 703.221 224.9C743.851 226.9 780.601 231.2 820.318 235.9C887.197 243.9 964.577 255.5 1044.58 255.1C1048.92 255.1 1053.37 255 1057.82 254.9C1139.99 252.9 1216.92 238.3 1285.39 205C1288.93 203.3 1292.47 201.5 1295.89 199.7C1325.34 184.3 1352.62 164.8 1376.81 141.4C1420.64 98.9 1456.93 50.2 1491.97 1.5" stroke="#8976FD" stroke-opacity="0.23" stroke-miterlimit="10"/>
<path d="M-28.1191 532.2C10.2283 506.1 63.8691 475 119.336 459.5C138.966 454 157.797 449.5 175.488 445.1C192.949 440.7 209.156 436.6 224.791 431.7C243.052 426.1 260.742 419 277.519 409.7C289.389 403.1 300.916 394.9 311.53 384.5C343.942 352.6 361.518 304.8 393.474 265.9C410.48 245 430.909 227.4 455.104 216.6C491.512 200.4 532.598 200.9 576.424 204.7C600.847 206.8 625.385 209.7 648.553 212.6C668.868 215.1 688.385 217.4 706.988 219.3C747.732 223.5 784.824 230.6 824.541 237.7C891.306 249.7 967.431 263.6 1046.86 262.5C1051.2 262.4 1055.54 262.3 1059.99 262.2C1141.36 259.2 1217.6 241.3 1284.14 205.9C1287.56 204.1 1290.99 202.2 1294.41 200.3C1323.06 184 1349.54 164 1373.16 140.6C1415.96 98.1004 1451.68 49.7004 1486.26 1.40039" stroke="#8976FD" stroke-opacity="0.23" stroke-miterlimit="10"/>
<path d="M-28.918 520.5C7.83166 491.3 59.9887 459.3 115.798 445.3C135.542 440.3 154.716 436.7 172.863 433.3C190.781 429.9 207.9 426.8 224.335 423C243.623 418.6 262.568 412.7 280.601 404.4C293.383 398.4 305.709 390.9 317.122 380.9C351.817 350.5 370.192 303.5 400.893 264.4C417.328 243.3 436.844 225.1 460.468 213.3C496.077 195.6 537.278 194 580.875 197C605.07 198.7 629.38 201.6 652.32 204.9C672.407 207.8 691.809 210.8 710.412 213.8C751.27 220.3 788.59 230.1 828.307 239.6C894.844 255.5 969.942 271.8 1048.69 270C1053.03 269.9 1057.36 269.8 1061.7 269.5C1142.39 265.5 1217.6 244.1 1282.43 206.8C1285.74 204.9 1289.05 202.9 1292.36 200.9C1320.2 183.8 1345.88 163.3 1368.82 139.9C1410.71 97.3004 1445.75 49.3004 1479.87 1.40039" stroke="#8976FD" stroke-opacity="0.23" stroke-miterlimit="10"/>
<path d="M-29.7178 508.8C5.43405 476.5 56.1074 443.5 112.259 431.1C132.003 426.7 151.52 423.9 170.237 421.5C188.726 419.1 206.53 417.1 223.877 414.3C244.193 411.1 264.508 406.4 283.681 399C297.377 393.7 310.616 386.7 322.599 377.3C359.577 348.5 378.637 302.3 408.31 262.9C424.174 241.7 442.777 222.9 465.832 210C500.641 190.7 542.07 187.1 585.325 189.3C609.292 190.5 633.373 193.4 656.085 197.3C676.058 200.7 695.346 204.4 713.835 208.4C754.693 217.2 792.584 229.7 832.187 241.6C898.61 261.4 972.452 280.1 1050.52 277.6C1054.74 277.5 1059.08 277.3 1063.3 277C1143.19 272 1217.6 247.2 1280.6 207.9C1283.91 205.9 1287.11 203.8 1290.3 201.6C1317.35 183.7 1342.12 162.7 1364.6 139.3C1405.46 96.7 1439.93 49 1473.71 1.5" stroke="#8976FD" stroke-opacity="0.23" stroke-miterlimit="10"/>
<path d="M-30.4014 497.1C3.26677 461.7 52.3424 427.8 108.836 417C128.695 413.2 148.439 411.2 167.727 409.7C186.787 408.2 205.39 407.3 223.65 405.5C244.993 403.5 266.563 400 286.992 393.5C301.601 388.8 315.639 382.4 328.421 373.5C367.682 346.2 387.54 300.8 415.958 261.1C431.366 239.7 448.828 220.3 471.425 206.5C505.322 185.7 546.979 180 590.006 181.4C613.63 182.2 637.483 185.1 660.081 189.4C679.825 193.2 698.999 197.7 717.374 202.7C758.346 213.9 796.58 229 836.068 243.3C902.377 267 975.078 288.1 1052.46 284.9C1056.68 284.7 1060.9 284.5 1065.13 284.2C1144.22 278.1 1217.94 250 1279 208.7C1282.2 206.5 1285.28 204.4 1288.36 202.1C1314.61 183.3 1338.58 161.9 1360.49 138.5C1400.32 95.8004 1434.22 48.5004 1467.55 1.40039" stroke="#8976FD" stroke-opacity="0.23" stroke-miterlimit="10"/>
<path d="M-31.2012 485.3C0.86916 446.8 48.4611 412 105.297 402.7C125.27 399.4 145.357 398.3 165.101 397.8C184.617 397.3 204.019 397.4 223.193 396.7C245.676 395.9 268.502 393.6 290.073 388C305.594 384 320.431 378.2 333.898 369.7C375.441 343.9 395.985 299.3 423.376 259.4C438.213 237.8 454.761 217.8 476.788 203C509.886 180.7 551.657 172.8 594.456 173.5C617.852 173.9 641.477 176.8 663.846 181.5C683.476 185.7 702.422 191 720.797 197C761.883 210.5 800.345 228.3 839.948 244.9C906.143 272.6 977.588 296 1054.28 292.1C1058.51 291.9 1062.61 291.6 1066.84 291.2C1145.24 284.1 1218.06 252.7 1277.29 209.2C1280.37 206.9 1283.45 204.6 1286.42 202.3C1311.87 182.7 1335.04 160.8 1356.38 137.4C1395.19 94.7 1428.51 47.7 1461.38 1" stroke="#8976FD" stroke-opacity="0.23" stroke-miterlimit="10"/>
<path d="M-32 473.6C-1.52748 432 44.5808 396.2 101.76 388.6C141.705 383.2 182.335 387.5 222.737 388.1C263.138 388.7 305.366 385.1 339.491 366.2C407.055 328.7 421.093 244.9 482.267 199.8C532.027 163 604.955 159.1 667.841 173.9C730.726 188.7 786.878 219.5 843.942 247C913.561 280.4 987.859 307.2 1068.78 298.8C1146.38 290.7 1218.4 255.9 1275.81 210.4C1349.88 151.7 1403.18 75.8998 1455.33 1.2998" stroke="#8976FD" stroke-opacity="0.23" stroke-miterlimit="10"/>
</svg>
