<svg width="435" height="457" viewBox="0 0 435 457" fill="none" xmlns="http://www.w3.org/2000/svg">
<path d="M452.639 11.8794C431.206 45.8018 418.089 84.0317 401.65 120.583C383.895 160.059 358.624 201.618 320.891 224.913C276.48 252.317 224.502 236.265 191.564 198.319C161.593 163.842 151.043 118.941 131.731 78.8614C118.604 51.5833 98.1641 22.7262 70.9151 7.97425C29.5037 -14.5699 -19.7124 17.6499 8.23909 64.2965C20.9656 85.5464 43.1952 99.1557 57.515 119.296C72.8861 140.901 82.563 166.559 84.9939 193.014C87.5172 220.358 82.0227 247.995 70.2473 272.732C58.9301 296.253 37.572 310.969 25.0735 333.937C15.7085 351.141 11.6277 372.471 19.127 390.577C33.0987 424.691 79.965 438.711 112.361 447.174C153.848 457.885 197.772 459.576 239.941 451.737C282.427 443.911 318.884 420.884 360.286 409.977C388.48 402.645 420.806 403.067 444.083 420.704L452.639 11.8794Z" fill="#8976FD" fill-opacity="0.1"/>
</svg>
