<svg width="460" height="504" viewBox="0 0 460 504" fill="none" xmlns="http://www.w3.org/2000/svg">
<path d="M-233 559.782C-165.2 572.482 -92.5 556.182 -36.6 515.782C-11.6 497.782 10.6 474.282 20.7 445.282C28.1 424.182 28.7 401.382 35.2 379.982C51.7 325.782 109.4 287.382 165.7 292.982C195.5 295.882 223 309.482 250.5 321.182C278 332.882 307.7 343.182 337.3 339.082C366.9 334.982 396 312.282 397.5 282.382C398.7 258.582 383.2 237.582 369.9 217.782C356.6 197.982 344.4 173.482 352.7 151.082C364.6 119.282 407.2 114.582 434.1 93.8816C451.2 80.6816 462.2 58.6816 458.6 37.3816C455 16.0816 434.7 -2.01836 413.2 0.181636C389.2 2.68164 374 26.1816 362.5 47.3816C350.7 69.0816 339 91.2816 321.4 108.682C303.8 125.982 279.1 137.982 254.7 134.282C210.6 127.482 189.5 76.8816 153.8 50.0816C119.4 24.3816 73.1 22.3817 30.3 25.4817C-59.3 32.0817 -147.4 57.1816 -227.1 98.6816L-233 559.782Z" fill="#8976FD" fill-opacity="0.25"/>
</svg>
